<svg width="64" height="76" viewBox="0 0 64 76" fill="none" xmlns="http://www.w3.org/2000/svg">
<path d="M60 13L53.4393 6L13.0654 13H60Z" fill="url(#paint0_linear_4509_143)"/>
<g filter="url(#filter0_d_4509_143)">
<path d="M6 6H53.4393V63.4972C53.4393 65.0453 51.7559 66.0064 50.4227 65.2195L29.7196 53L9.01659 65.2195C7.68335 66.0064 6 65.0453 6 63.4972V6Z" fill="#FFD74A"/>
</g>
<path d="M20.9784 28V24.292L18.2064 19.48H20.4984L21.9984 22.312H22.0224L23.4984 19.48H25.8144L23.0184 24.292V28H20.9784ZM27.2393 18.88L28.3793 17.2H30.3953L31.5713 18.88H29.9393L29.3993 18.1H29.3753L28.8353 18.88H27.2393ZM26.5913 28V19.48H32.1473V21.268H28.5473V22.9H31.3913V24.628H28.5473V26.212H32.3993V28H26.5913ZM37.0308 28.108C34.9308 28.108 33.5148 26.812 33.5148 24.448V19.48H35.5308V24.328C35.5308 25.372 36.0348 26.236 37.0308 26.236C37.9188 26.236 38.5668 25.54 38.5668 24.328V19.48H40.5708V24.448C40.5708 26.668 39.2988 28.108 37.0308 28.108ZM13.9931 43V36.268H11.7731V34.48H18.2651V36.268H16.0331V43H13.9931ZM19.2964 43V34.48H21.3244V38.008H24.3244V34.48H26.3404V43H24.3244V39.784H21.3244V43H19.2964ZM28.0305 33.892L29.3265 32.212H31.2345L29.7225 33.892H28.0305ZM27.9225 43V34.48H29.9745V43H27.9225ZM35.6579 43.108C33.2099 43.108 31.2539 41.584 31.2539 38.752C31.2539 36.316 32.8379 34.36 35.6459 34.36C36.8459 34.36 38.1419 34.864 39.0779 36.004L37.6139 37.264C37.1579 36.724 36.4739 36.28 35.6459 36.28C34.4099 36.28 33.3659 37.192 33.3659 38.752C33.3659 40.12 34.2659 41.188 35.6579 41.188C36.4499 41.188 37.1339 40.816 37.6259 40.228L39.0899 41.488C38.3579 42.388 37.1699 43.108 35.6579 43.108ZM40.1323 43V34.48H42.1603V38.008H45.1603V34.48H47.1763V43H45.1603V39.784H42.1603V43H40.1323Z" fill="#18264D" fill-opacity="0.7"/>
<defs>
<filter id="filter0_d_4509_143" x="0" y="0" width="63.4395" height="75.5002" filterUnits="userSpaceOnUse" color-interpolation-filters="sRGB">
<feFlood flood-opacity="0" result="BackgroundImageFix"/>
<feColorMatrix in="SourceAlpha" type="matrix" values="0 0 0 0 0 0 0 0 0 0 0 0 0 0 0 0 0 0 127 0" result="hardAlpha"/>
<feOffset dx="2" dy="2"/>
<feGaussianBlur stdDeviation="4"/>
<feComposite in2="hardAlpha" operator="out"/>
<feColorMatrix type="matrix" values="0 0 0 0 0 0 0 0 0 0 0 0 0 0 0 0 0 0 0.15 0"/>
<feBlend mode="normal" in2="BackgroundImageFix" result="effect1_dropShadow_4509_143"/>
<feBlend mode="normal" in="SourceGraphic" in2="effect1_dropShadow_4509_143" result="shape"/>
</filter>
<linearGradient id="paint0_linear_4509_143" x1="51.9252" y1="8.5" x2="59.9637" y2="13.0639" gradientUnits="userSpaceOnUse">
<stop stop-color="#AE8800"/>
<stop offset="1" stop-color="#FFD74A"/>
</linearGradient>
</defs>
</svg>
