<svg xmlns="http://www.w3.org/2000/svg" width="40" height="40" viewBox="0 0 40 40" fill="none">
  <path d="M15.2668 18.1166C15.1001 18.1 14.9001 18.1 14.7168 18.1166C10.7501 17.9833 7.6001 14.7333 7.6001 10.7333C7.6001 6.64998 10.9001 3.33331 15.0001 3.33331C19.0834 3.33331 22.4001 6.64998 22.4001 10.7333C22.3834 14.7333 19.2334 17.9833 15.2668 18.1166Z" stroke="#37D2C0" stroke-width="2.5" stroke-linecap="round" stroke-linejoin="round"/>
  <path d="M27.35 6.66669C30.5833 6.66669 33.1833 9.28335 33.1833 12.5C33.1833 15.65 30.6833 18.2167 27.5666 18.3334C27.4333 18.3167 27.2833 18.3167 27.1333 18.3334" stroke="#37D2C0" stroke-width="2.5" stroke-linecap="round" stroke-linejoin="round"/>
  <path d="M6.93345 24.2667C2.90011 26.9667 2.90011 31.3667 6.93345 34.05C11.5168 37.1167 19.0334 37.1167 23.6168 34.05C27.6501 31.35 27.6501 26.95 23.6168 24.2667C19.0501 21.2167 11.5334 21.2167 6.93345 24.2667Z" stroke="#37D2C0" stroke-width="2.5" stroke-linecap="round" stroke-linejoin="round"/>
  <path d="M30.5667 33.3333C31.7667 33.0833 32.9 32.6 33.8333 31.8833C36.4333 29.9333 36.4333 26.7166 33.8333 24.7666C32.9166 24.0666 31.8 23.6 30.6167 23.3333" stroke="#37D2C0" stroke-width="2.5" stroke-linecap="round" stroke-linejoin="round"/>
</svg>