<svg xmlns="http://www.w3.org/2000/svg" width="30" height="36" viewBox="0 0 30 36" fill="none">
  <g clip-path="url(#clip0_4495_28059)">
    <path d="M18.6307 29.9016C20.1203 29.979 21.2448 28.5166 22.8779 29.512C22.5611 29.7801 22.3688 29.9757 22.1699 30.0638C19.7654 31.1875 17.3193 32.3354 14.8907 33.4175C14.4929 33.5938 13.8565 33.7422 13.5545 33.5567C12.9831 33.1943 13.2798 32.604 13.5503 32.1124C14.3882 30.5389 15.2019 28.9238 16.0484 27.3175C16.8783 28.0299 16.8783 28.0299 15.8825 30.864C20.5857 27.955 21.5532 21.9102 17.8623 17.9415C17.4779 18.3326 17.1263 18.7323 16.7418 19.1234C15.6059 20.2308 14.3032 20.9068 12.6716 20.9679C11.5014 21.0102 10.5101 20.6423 9.9159 19.5698C9.33043 18.4645 9.66594 17.4621 10.3712 16.5223C11.858 14.487 14.1561 13.8983 16.4301 14.9929C16.7081 15.1369 17.0035 15.215 17.4214 15.3609C18.4608 12.3623 18.6187 9.3769 17.4075 6.52199C15.5599 2.09067 11.3951 1.90371 8.27991 3.19133C7.89077 3.33475 7.54115 3.59422 6.93566 3.89159C7.30399 2.89787 7.96841 2.5105 8.62413 2.15602C11.1726 0.753647 14.7079 1.19639 16.854 3.17233C18.2031 4.44454 19.0954 5.98306 19.4565 7.80342C19.9785 10.4759 19.8748 13.1237 18.883 15.6772C18.7805 15.9317 18.7109 16.1949 18.591 16.5151C20.1859 18.4508 21.4901 20.556 21.5178 23.2385C21.4972 25.8378 19.9621 27.79 18.6307 29.9016ZM16.7169 16.8288C14.7308 15.1768 12.4629 15.3863 11.2996 17.2608C11.0049 17.7108 10.8877 18.419 11.0371 18.9161C11.2414 19.6038 11.9809 19.7291 12.6742 19.6309C14.4806 19.4402 15.7304 18.4333 16.7169 16.8288Z" fill="#FFD74A"/>
  </g>
  <defs>
    <clipPath id="clip0_4495_28059">
      <rect width="22" height="31" fill="white" transform="translate(21.2676 35.5977) rotate(-165.177)"/>
    </clipPath>
  </defs>
</svg>