<svg width="165" height="62" viewBox="0 0 165 62" fill="none" xmlns="http://www.w3.org/2000/svg">
<path d="M57.0952 0C39.3865 0 25.0293 13.8769 25.0293 30.9981C25.0293 34.7785 25.7305 38.4019 27.0101 41.7496C29.3396 41.4508 32.3465 40.7767 36.1815 39.4744C35.0484 36.866 34.4225 34.0048 34.4225 30.9981C34.4225 18.8945 44.5723 9.07766 57.0952 9.07766C64.9156 9.07766 71.8129 12.9079 75.8855 18.7337C78.3695 17.1403 80.9604 15.4435 83.6584 13.6318C77.8941 5.40446 68.1483 0 57.0952 0Z" fill="#0255CF"/>
<path d="M104.853 8.23494C104.853 8.23494 104.548 8.51072 103.978 9.01248C103.978 9.01248 103.95 9.03929 103.891 9.09291C103.855 9.12355 103.815 9.15803 103.78 9.1925C102.044 10.7246 98.3482 13.9611 93.7844 17.7952C93.5863 17.9599 93.3842 18.1246 93.1822 18.297C92.6474 18.7413 92.1046 19.1932 91.542 19.6567C84.2723 25.6395 74.6771 33.1621 65.177 39.4782C64.4837 39.9225 63.7864 40.3629 63.0733 40.8073V40.8034C58.6561 43.6301 54.5121 46.024 50.6376 48.0502C33.9311 56.7755 22.2243 58.6178 15.2161 58.5834H15.2122C15.1646 58.5834 15.121 58.5834 15.0775 58.5834C14.3406 58.5795 13.6552 58.5527 13.0213 58.5106C12.9144 58.5029 12.8114 58.4953 12.7084 58.4838C8.60405 58.1276 5.94576 56.8789 4.36901 55.8064C4.36108 55.8026 4.35712 55.795 4.3492 55.7873C3.73117 55.3392 3.08542 54.7914 2.4872 54.1326C1.77806 53.3628 1.13627 52.4397 0.684635 51.3634C0.221117 50.2679 -0.0482781 49.0154 0.00718555 47.5829C0.0111472 47.5561 0.00718555 47.5255 0.0111472 47.4987C0.367699 41.2171 6.53605 35.6901 9.61032 33.3115C9.72125 33.2234 9.82822 33.1391 9.93914 33.0587C9.95103 33.0472 9.96688 33.0395 9.9748 33.0319C12.2607 31.3389 14.606 29.9332 16.5869 28.8569C19.1184 27.4819 21.0477 26.6545 21.4954 26.4669C9.57467 39.2254 16.2501 44.1855 16.7731 44.5379C16.7929 44.557 16.8048 44.5609 16.8048 44.5609C20.5089 47.4604 37.3382 52.8112 102.845 6.14746L104.449 7.8251L104.853 8.23494Z" fill="#FDBA02"/>
<path d="M90.2385 8.07413L96.4108 13.1645L99.7149 20.0321L112.796 0L90.2385 8.07413Z" fill="#FDBA02"/>
<path d="M88.9591 34.4453C88.5431 38.0955 87.4695 41.5581 85.8531 44.7142C80.6237 54.9562 69.7092 62 57.0952 62C51.2319 62 45.737 60.4794 41.0107 57.8212C44.5881 56.404 48.4468 54.6498 52.5868 52.4857C54.0447 52.7692 55.5501 52.9185 57.0952 52.9185C64.2461 52.9185 70.6244 49.7165 74.7841 44.7142H64.6858C64.6858 44.7142 68.5841 42.711 78.9835 34.4453H88.9591Z" fill="#0255CF"/>
<path d="M116.869 32.1311C116.297 31.1175 115.51 30.3458 114.51 29.816C113.509 29.2862 112.342 29.0213 111.007 29.0213C109.53 29.0213 108.22 29.3438 107.076 29.9888C105.932 30.6338 105.039 31.5552 104.395 32.7531C103.752 33.9509 103.43 35.3331 103.43 36.8995C103.43 38.512 103.752 39.9172 104.395 41.1151C105.063 42.3129 105.98 43.2344 107.147 43.8794C108.315 44.5244 109.673 44.8469 111.222 44.8469C113.128 44.8469 114.688 44.3631 115.904 43.3956C117.119 42.4051 117.917 41.0344 118.298 39.2837H109.721V35.5865H123.23V39.802C122.897 41.4836 122.182 43.0386 121.086 44.4668C119.99 45.895 118.572 47.0468 116.833 47.9222C115.117 48.7745 113.187 49.2006 111.043 49.2006C108.637 49.2006 106.456 48.6823 104.503 47.6457C102.573 46.5861 101.048 45.1233 99.928 43.2574C98.8319 41.3915 98.2839 39.2722 98.2839 36.8995C98.2839 34.5268 98.8319 32.4075 99.928 30.5416C101.048 28.6527 102.573 27.1899 104.503 26.1533C106.456 25.0937 108.625 24.5639 111.007 24.5639C113.819 24.5639 116.261 25.2319 118.334 26.568C120.407 27.881 121.836 29.7354 122.623 32.1311H116.869Z" fill="#0255CF"/>
<path d="M143.908 24.8748V28.7794H137.261V48.9933H132.257V28.7794H125.61V24.8748H143.908Z" fill="#0255CF"/>
<path d="M156.172 49.2352C154.433 49.2352 152.86 48.9472 151.455 48.3714C150.073 47.7955 148.977 46.9662 148.167 45.8835C147.357 44.8008 146.94 43.5223 146.916 42.048H152.277C152.348 43.0386 152.706 43.8218 153.349 44.3977C154.016 44.9736 154.921 45.2615 156.065 45.2615C157.233 45.2615 158.15 44.9966 158.817 44.4668C159.484 43.9139 159.818 43.1998 159.818 42.3245C159.818 41.6103 159.591 41.0229 159.139 40.5622C158.686 40.1015 158.114 39.7444 157.423 39.4911C156.756 39.2146 155.827 38.9152 154.636 38.5927C153.015 38.1319 151.693 37.6827 150.668 37.2451C149.668 36.7843 148.798 36.1048 148.059 35.2064C147.345 34.285 146.987 33.0641 146.987 31.5437C146.987 30.1155 147.357 28.8715 148.095 27.8119C148.834 26.7523 149.87 25.946 151.205 25.3931C152.539 24.8172 154.064 24.5293 155.779 24.5293C158.352 24.5293 160.437 25.1397 162.034 26.3606C163.654 27.5585 164.547 29.2401 164.714 31.4055H159.21C159.163 30.5762 158.793 29.8966 158.102 29.3668C157.435 28.814 156.542 28.5375 155.422 28.5375C154.445 28.5375 153.659 28.7794 153.063 29.2632C152.491 29.7469 152.205 30.4495 152.205 31.3709C152.205 32.0159 152.42 32.5573 152.849 32.995C153.301 33.4096 153.849 33.7551 154.493 34.0316C155.16 34.285 156.089 34.5844 157.28 34.93C158.9 35.3907 160.223 35.8514 161.247 36.3121C162.272 36.7728 163.153 37.4639 163.892 38.3853C164.631 39.3068 165 40.5161 165 42.0135C165 43.3035 164.655 44.5013 163.964 45.6071C163.273 46.7128 162.26 47.5997 160.926 48.2677C159.591 48.9127 158.007 49.2352 156.172 49.2352Z" fill="#0255CF"/>
<path d="M122.352 53.7649L119.437 61.2696H117.963L115.037 53.7649H116.399L118.7 60.0062L121.012 53.7649H122.352Z" fill="#0255CF"/>
<path d="M124.512 54.5316C124.281 54.5316 124.087 54.456 123.931 54.3048C123.774 54.1537 123.696 53.9665 123.696 53.7433C123.696 53.5202 123.774 53.333 123.931 53.1818C124.087 53.0307 124.281 52.9551 124.512 52.9551C124.735 52.9551 124.925 53.0307 125.081 53.1818C125.238 53.333 125.316 53.5202 125.316 53.7433C125.316 53.9665 125.238 54.1537 125.081 54.3048C124.925 54.456 124.735 54.5316 124.512 54.5316ZM125.137 55.3198V61.2696H123.864V55.3198H125.137Z" fill="#0255CF"/>
<path d="M132.896 58.1489C132.896 58.3721 132.881 58.5737 132.851 58.7536H128.149C128.186 59.2287 128.369 59.6103 128.696 59.8982C129.024 60.1862 129.426 60.3301 129.902 60.3301C130.587 60.3301 131.071 60.053 131.354 59.4987H132.728C132.542 60.0458 132.203 60.4957 131.712 60.8484C131.228 61.194 130.625 61.3667 129.902 61.3667C129.314 61.3667 128.786 61.2408 128.316 60.9888C127.855 60.7297 127.49 60.3697 127.222 59.909C126.961 59.4411 126.831 58.9012 126.831 58.2893C126.831 57.6774 126.958 57.1411 127.211 56.6804C127.471 56.2125 127.832 55.8525 128.294 55.6006C128.763 55.3486 129.299 55.2227 129.902 55.2227C130.483 55.2227 131.001 55.345 131.455 55.5898C131.909 55.8346 132.263 56.1801 132.516 56.6264C132.769 57.0655 132.896 57.573 132.896 58.1489ZM131.567 57.7602C131.559 57.3067 131.392 56.9432 131.064 56.6696C130.736 56.3961 130.331 56.2593 129.847 56.2593C129.407 56.2593 129.031 56.3961 128.719 56.6696C128.406 56.936 128.22 57.2995 128.16 57.7602H131.567Z" fill="#0255CF"/>
<path d="M136.081 56.3241V59.6175C136.081 59.8406 136.133 60.0026 136.237 60.1034C136.349 60.197 136.535 60.2437 136.796 60.2437H137.577V61.2696H136.572C135.999 61.2696 135.56 61.14 135.254 60.8808C134.949 60.6217 134.796 60.2006 134.796 59.6175V56.3241H134.07V55.3198H134.796V53.8405H136.081V55.3198H137.577V56.3241H136.081Z" fill="#0255CF"/>
<path d="M142.302 55.2227C142.786 55.2227 143.218 55.3198 143.598 55.5142C143.985 55.7086 144.287 55.9965 144.503 56.3781C144.719 56.7596 144.827 57.2203 144.827 57.7602V61.2696H143.565V57.9438C143.565 57.4111 143.427 57.0043 143.151 56.7236C142.876 56.4356 142.5 56.2917 142.023 56.2917C141.547 56.2917 141.167 56.4356 140.884 56.7236C140.609 57.0043 140.471 57.4111 140.471 57.9438V61.2696H139.198V55.3198H140.471V56.0001C140.679 55.7554 140.944 55.5646 141.264 55.4278C141.591 55.2911 141.938 55.2227 142.302 55.2227Z" fill="#0255CF"/>
<path d="M146.473 58.2677C146.473 57.6702 146.6 57.1411 146.853 56.6804C147.113 56.2197 147.463 55.8633 147.903 55.6114C148.349 55.3522 148.841 55.2227 149.377 55.2227C149.861 55.2227 150.281 55.3162 150.639 55.5034C151.004 55.6834 151.294 55.9101 151.51 56.1837V55.3198H152.794V61.2696H151.51V60.3841C151.294 60.6649 151 60.8988 150.628 61.086C150.255 61.2732 149.831 61.3667 149.354 61.3667C148.826 61.3667 148.342 61.2372 147.903 60.978C147.463 60.7117 147.113 60.3445 146.853 59.8766C146.6 59.4015 146.473 58.8652 146.473 58.2677ZM151.51 58.2893C151.51 57.879 151.421 57.5226 151.242 57.2203C151.071 56.918 150.844 56.6876 150.561 56.5292C150.278 56.3709 149.972 56.2917 149.645 56.2917C149.317 56.2917 149.012 56.3709 148.729 56.5292C148.446 56.6804 148.215 56.9072 148.037 57.2095C147.865 57.5046 147.78 57.8574 147.78 58.2677C147.78 58.678 147.865 59.038 148.037 59.3475C148.215 59.6571 148.446 59.8946 148.729 60.0602C149.019 60.2186 149.325 60.2977 149.645 60.2977C149.972 60.2977 150.278 60.2186 150.561 60.0602C150.844 59.9018 151.071 59.6715 151.242 59.3691C151.421 59.0596 151.51 58.6996 151.51 58.2893Z" fill="#0255CF"/>
<path d="M162.363 55.2227C162.847 55.2227 163.279 55.3198 163.659 55.5142C164.046 55.7086 164.347 55.9965 164.563 56.3781C164.787 56.7596 164.898 57.2203 164.898 57.7602V61.2696H163.636V57.9438C163.636 57.4111 163.498 57.0043 163.223 56.7236C162.947 56.4356 162.571 56.2917 162.095 56.2917C161.618 56.2917 161.239 56.4356 160.956 56.7236C160.68 57.0043 160.542 57.4111 160.542 57.9438V61.2696H159.28V57.9438C159.28 57.4111 159.143 57.0043 158.867 56.7236C158.592 56.4356 158.216 56.2917 157.739 56.2917C157.263 56.2917 156.883 56.4356 156.6 56.7236C156.324 57.0043 156.187 57.4111 156.187 57.9438V61.2696H154.913V55.3198H156.187V56.0001C156.395 55.7554 156.66 55.5646 156.98 55.4278C157.3 55.2911 157.642 55.2227 158.007 55.2227C158.499 55.2227 158.938 55.3234 159.325 55.525C159.712 55.7266 160.01 56.0181 160.219 56.3997C160.405 56.0397 160.695 55.7554 161.09 55.5466C161.484 55.3306 161.909 55.2227 162.363 55.2227Z" fill="#0255CF"/>
</svg>
