<svg width="120" height="44" viewBox="0 0 120 44" fill="none" xmlns="http://www.w3.org/2000/svg">
<path d="M41.5238 0C28.6447 0 18.2031 9.84815 18.2031 21.9986C18.2031 24.6815 18.7131 27.253 19.6437 29.6287C21.3379 29.4167 23.5248 28.9383 26.3138 28.0141C25.4898 26.163 25.0345 24.1325 25.0345 21.9986C25.0345 13.409 32.4162 6.44221 41.5238 6.44221C47.2113 6.44221 52.2276 9.16044 55.1895 13.2949C56.996 12.1641 58.8803 10.9599 60.8424 9.67418C56.6502 3.83542 49.5624 0 41.5238 0Z" fill="white"/>
<path d="M76.257 5.84423C76.257 5.84423 76.0351 6.03994 75.6202 6.39603C75.6202 6.39603 75.6 6.41506 75.5568 6.45311C75.5309 6.47486 75.5021 6.49932 75.4762 6.52379C74.2142 7.61108 71.526 9.90798 68.2068 12.6289C68.0628 12.7458 67.9158 12.8627 67.7689 12.985C67.3799 13.3003 66.9852 13.6211 66.576 13.95C61.289 18.1959 54.3106 23.5345 47.4015 28.0168C46.8972 28.3322 46.3901 28.6448 45.8715 28.9601V28.9573C42.659 30.9634 39.6452 32.6623 36.8273 34.1002C24.6772 40.2924 16.1632 41.5998 11.0663 41.5754H11.0634C11.0288 41.5754 10.9971 41.5754 10.9654 41.5754C10.4295 41.5727 9.93106 41.5536 9.47007 41.5237C9.39227 41.5183 9.31736 41.5129 9.24245 41.5047C6.25749 41.2519 4.32419 40.3658 3.17746 39.6047C3.1717 39.6019 3.16882 39.5965 3.16305 39.5911C2.71358 39.273 2.24394 38.8843 1.80888 38.4168C1.29314 37.8704 0.826376 37.2153 0.497916 36.4515C0.160812 35.6741 -0.0351114 34.7852 0.00522586 33.7686C0.00810709 33.7496 0.00522586 33.7278 0.00810709 33.7088C0.267418 29.2509 4.75349 25.3285 6.98933 23.6405C7.07 23.578 7.14779 23.5182 7.22847 23.4611C7.23711 23.4529 7.24864 23.4475 7.2544 23.4421C8.91687 22.2406 10.6226 21.243 12.0632 20.4792C13.9043 19.5033 15.3074 18.9162 15.633 18.783C6.96339 27.8374 11.8183 31.3575 12.1986 31.6076C12.213 31.6212 12.2216 31.6239 12.2216 31.6239C14.9156 33.6816 27.155 37.479 74.7962 4.36279L75.9631 5.55338L76.257 5.84423Z" fill="#FDBA02"/>
<path d="M65.6282 5.73003L70.1171 9.34256L72.5201 14.2163L82.0339 0L65.6282 5.73003Z" fill="#FDBA02"/>
<path d="M64.6974 24.4451C64.3949 27.0355 63.6141 29.4928 62.4386 31.7326C58.6353 39.0012 50.6976 44 41.5237 44C37.2595 44 33.2632 42.9209 29.8259 41.0344C32.4277 40.0287 35.234 38.7837 38.2449 37.2479C39.3052 37.4491 40.4 37.5551 41.5237 37.5551C46.7243 37.5551 51.3631 35.2827 54.3884 31.7326H47.0441C47.0441 31.7326 49.8793 30.311 57.4425 24.4451H64.6974Z" fill="white"/>
<path d="M84.9953 22.8028C84.5794 22.0835 84.0076 21.5358 83.2798 21.1598C82.552 20.7838 81.7029 20.5958 80.7326 20.5958C79.6582 20.5958 78.7051 20.8247 77.8734 21.2824C77.0416 21.7402 76.3918 22.3941 75.924 23.2442C75.4561 24.0943 75.2222 25.0752 75.2222 26.1868C75.2222 27.3312 75.4561 28.3284 75.924 29.1785C76.4091 30.0286 77.0763 30.6825 77.9254 31.1403C78.7745 31.598 79.7622 31.8269 80.8885 31.8269C82.2748 31.8269 83.4098 31.4836 84.2935 30.797C85.1773 30.094 85.7578 29.1213 86.035 27.8788H79.7968V25.255H89.622V28.2467C89.3794 29.4401 88.8595 30.5436 88.0624 31.5571C87.2653 32.5707 86.2343 33.3881 84.9693 34.0093C83.7217 34.6142 82.3181 34.9167 80.7586 34.9167C79.0084 34.9167 77.4229 34.5488 76.0019 33.8132C74.5983 33.0612 73.4893 32.0231 72.6749 30.6989C71.8778 29.3747 71.4792 27.8707 71.4792 26.1868C71.4792 24.503 71.8778 22.999 72.6749 21.6748C73.4893 20.3342 74.5983 19.2962 76.0019 18.5605C77.4229 17.8085 78.9997 17.4325 80.7326 17.4325C82.7773 17.4325 84.5534 17.9066 86.061 18.8548C87.5686 19.7866 88.6083 21.1026 89.1801 22.8028H84.9953Z" fill="white"/>
<path d="M104.661 17.6532V20.4242H99.826V34.7695H96.1871V20.4242H91.3525V17.6532H104.661Z" fill="white"/>
<path d="M113.58 34.9412C112.315 34.9412 111.171 34.7368 110.149 34.3281C109.144 33.9194 108.347 33.3309 107.758 32.5625C107.168 31.7942 106.865 30.8869 106.848 29.8406H110.747C110.799 30.5436 111.059 31.0994 111.526 31.5081C112.012 31.9168 112.67 32.1212 113.502 32.1212C114.351 32.1212 115.018 31.9331 115.503 31.5571C115.989 31.1648 116.231 30.658 116.231 30.0368C116.231 29.53 116.067 29.1131 115.737 28.7862C115.408 28.4592 114.992 28.2058 114.49 28.026C114.004 27.8298 113.329 27.6173 112.462 27.3884C111.284 27.0614 110.322 26.7427 109.577 26.432C108.849 26.1051 108.217 25.6228 107.68 24.9853C107.16 24.3313 106.9 23.4649 106.9 22.3859C106.9 21.3723 107.168 20.4896 107.706 19.7375C108.243 18.9855 108.997 18.4134 109.967 18.021C110.937 17.6123 112.046 17.408 113.294 17.408C115.165 17.408 116.682 17.8412 117.843 18.7076C119.021 19.5577 119.671 20.7511 119.792 22.2878H115.789C115.755 21.6993 115.486 21.217 114.983 20.841C114.498 20.4487 113.848 20.2525 113.034 20.2525C112.324 20.2525 111.752 20.4242 111.319 20.7675C110.903 21.1108 110.695 21.6094 110.695 22.2633C110.695 22.7211 110.851 23.1052 111.163 23.4158C111.492 23.7101 111.89 23.9553 112.358 24.1515C112.843 24.3313 113.519 24.5439 114.386 24.7891C115.564 25.116 116.526 25.443 117.271 25.77C118.016 26.0969 118.657 26.5874 119.194 27.2413C119.731 27.8952 120 28.7535 120 29.8161C120 30.7316 119.749 31.5817 119.246 32.3664C118.744 33.1511 118.007 33.7805 117.037 34.2546C116.067 34.7123 114.914 34.9412 113.58 34.9412Z" fill="white"/>
<path d="M88.9834 38.1558L86.8634 43.4817H85.7912L83.6631 38.1558H84.654L86.3273 42.5851L88.0087 38.1558H88.9834Z" fill="white"/>
<path d="M90.5538 38.6999C90.3859 38.6999 90.2452 38.6462 90.1314 38.5389C90.0177 38.4317 89.9609 38.2988 89.9609 38.1405C89.9609 37.9821 90.0177 37.8493 90.1314 37.742C90.2452 37.6347 90.3859 37.5811 90.5538 37.5811C90.7163 37.5811 90.8543 37.6347 90.9681 37.742C91.0818 37.8493 91.1386 37.9821 91.1386 38.1405C91.1386 38.2988 91.0818 38.4317 90.9681 38.5389C90.8543 38.6462 90.7163 38.6999 90.5538 38.6999ZM91.0087 39.2593V43.4817H90.0827V39.2593H91.0087Z" fill="white"/>
<path d="M96.6512 41.267C96.6512 41.4254 96.6404 41.5684 96.6188 41.6962H93.1991C93.2262 42.0333 93.3589 42.3041 93.5971 42.5084C93.8354 42.7128 94.1278 42.815 94.4744 42.815C94.9726 42.815 95.3245 42.6183 95.5303 42.2249H96.5294C96.394 42.6132 96.1476 42.9325 95.7902 43.1828C95.4383 43.428 94.9996 43.5506 94.4744 43.5506C94.0466 43.5506 93.6621 43.4612 93.321 43.2824C92.9852 43.0985 92.7199 42.8431 92.5249 42.5161C92.3354 42.184 92.2407 41.8009 92.2407 41.3666C92.2407 40.9324 92.3327 40.5518 92.5168 40.2248C92.7064 39.8928 92.969 39.6373 93.3047 39.4585C93.6459 39.2797 94.0358 39.1903 94.4744 39.1903C94.8968 39.1903 95.2731 39.2772 95.6034 39.4509C95.9337 39.6246 96.191 39.8698 96.3751 40.1865C96.5592 40.4981 96.6512 40.8583 96.6512 41.267ZM95.6847 40.9911C95.6792 40.6693 95.5574 40.4113 95.3191 40.2172C95.0809 40.023 94.7857 39.926 94.4338 39.926C94.1143 39.926 93.8408 40.023 93.6134 40.2172C93.3859 40.4062 93.2506 40.6642 93.2072 40.9911H95.6847Z" fill="white"/>
<path d="M98.9677 39.9719V42.3092C98.9677 42.4676 99.0056 42.5825 99.0814 42.654C99.1627 42.7205 99.298 42.7537 99.4876 42.7537H100.056V43.4817H99.3251C98.9082 43.4817 98.5887 43.3897 98.3666 43.2058C98.1446 43.0219 98.0336 42.723 98.0336 42.3092V39.9719H97.5056V39.2593H98.0336V38.2094H98.9677V39.2593H100.056V39.9719H98.9677Z" fill="white"/>
<path d="M103.493 39.1903C103.845 39.1903 104.159 39.2593 104.435 39.3972C104.716 39.5352 104.936 39.7395 105.093 40.0103C105.25 40.281 105.328 40.608 105.328 40.9911V43.4817H104.41V41.1214C104.41 40.7434 104.31 40.4547 104.11 40.2555C103.91 40.0511 103.636 39.949 103.29 39.949C102.943 39.949 102.667 40.0511 102.461 40.2555C102.261 40.4547 102.16 40.7434 102.16 41.1214V43.4817H101.235V39.2593H102.16V39.7421C102.312 39.5684 102.504 39.433 102.737 39.3359C102.975 39.2388 103.227 39.1903 103.493 39.1903Z" fill="white"/>
<path d="M106.526 41.3513C106.526 40.9273 106.618 40.5518 106.802 40.2248C106.991 39.8979 107.246 39.645 107.565 39.4662C107.89 39.2823 108.248 39.1903 108.638 39.1903C108.99 39.1903 109.296 39.2567 109.555 39.3896C109.821 39.5173 110.032 39.6782 110.189 39.8723V39.2593H111.123V43.4817H110.189V42.8533C110.032 43.0525 109.818 43.2186 109.547 43.3514C109.277 43.4842 108.968 43.5506 108.621 43.5506C108.237 43.5506 107.885 43.4587 107.565 43.2748C107.246 43.0857 106.991 42.8252 106.802 42.4931C106.618 42.1559 106.526 41.7753 106.526 41.3513ZM110.189 41.3666C110.189 41.0754 110.124 40.8226 109.994 40.608C109.87 40.3934 109.704 40.2299 109.499 40.1175C109.293 40.0052 109.071 39.949 108.833 39.949C108.594 39.949 108.372 40.0052 108.166 40.1175C107.961 40.2248 107.793 40.3858 107.663 40.6003C107.538 40.8098 107.476 41.0601 107.476 41.3513C107.476 41.6425 107.538 41.8979 107.663 42.1176C107.793 42.3373 107.961 42.5059 108.166 42.6234C108.378 42.7358 108.6 42.792 108.833 42.792C109.071 42.792 109.293 42.7358 109.499 42.6234C109.704 42.511 109.87 42.3475 109.994 42.1329C110.124 41.9133 110.189 41.6578 110.189 41.3666Z" fill="white"/>
<path d="M118.082 39.1903C118.434 39.1903 118.748 39.2593 119.024 39.3972C119.306 39.5352 119.525 39.7395 119.682 40.0103C119.845 40.281 119.926 40.608 119.926 40.9911V43.4817H119.008V41.1214C119.008 40.7434 118.908 40.4547 118.708 40.2555C118.507 40.0511 118.234 39.949 117.887 39.949C117.541 39.949 117.264 40.0511 117.059 40.2555C116.858 40.4547 116.758 40.7434 116.758 41.1214V43.4817H115.84V41.1214C115.84 40.7434 115.74 40.4547 115.54 40.2555C115.339 40.0511 115.066 39.949 114.719 39.949C114.373 39.949 114.097 40.0511 113.891 40.2555C113.69 40.4547 113.59 40.7434 113.59 41.1214V43.4817H112.664V39.2593H113.59V39.7421C113.742 39.5684 113.934 39.433 114.167 39.3359C114.4 39.2388 114.649 39.1903 114.914 39.1903C115.272 39.1903 115.591 39.2618 115.873 39.4049C116.154 39.5479 116.371 39.7548 116.523 40.0256C116.658 39.7702 116.869 39.5684 117.156 39.4202C117.443 39.2669 117.752 39.1903 118.082 39.1903Z" fill="white"/>
</svg>
